<svg width="24" height="24" viewBox="0 0 24 24" fill="none" xmlns="http://www.w3.org/2000/svg">
<path d="M6.99979 18C6.80204 17.9999 6.60874 17.9413 6.44433 17.8314C6.27992 17.7215 6.15178 17.5653 6.07611 17.3826C6.00044 17.1999 5.98064 16.9989 6.0192 16.805C6.05777 16.611 6.15298 16.4328 6.29279 16.293L16.2928 6.29299C16.4809 6.10828 16.7343 6.00532 16.9979 6.00651C17.2615 6.0077 17.514 6.11295 17.7004 6.29936C17.8868 6.48577 17.9921 6.73825 17.9933 7.00186C17.9945 7.26548 17.8915 7.5189 17.7068 7.70699L7.70679 17.707C7.61406 17.8 7.50386 17.8738 7.38253 17.924C7.2612 17.9743 7.13112 18.0001 6.99979 18Z" fill="#FF9D33"/>
<path d="M17.0003 18C16.869 18.0001 16.7389 17.9743 16.6176 17.924C16.4963 17.8738 16.3861 17.8 16.2933 17.707L6.29332 7.70699C6.10861 7.5189 6.00565 7.26548 6.00685 7.00186C6.00804 6.73825 6.11329 6.48577 6.2997 6.29936C6.4861 6.11295 6.73858 6.0077 7.0022 6.00651C7.26581 6.00532 7.51923 6.10828 7.70732 6.29299L17.7073 16.293C17.8471 16.4328 17.9423 16.611 17.9809 16.805C18.0195 16.9989 17.9997 17.1999 17.924 17.3826C17.8483 17.5653 17.7202 17.7215 17.5558 17.8314C17.3914 17.9413 17.1981 17.9999 17.0003 18Z" fill="#FF9D33"/>
</svg>
